<svg class="monster-icon" xmlns="http://www.w3.org/2000/svg" viewBox="0 0 128 128" role="img" aria-labelledby="monsterIconTitle">
  <title id="monsterIconTitle">Monster icon</title>
  <g class="monster-icon__glyph" fill="currentColor" stroke="none">
    <path class="monster-icon__shape" d="M 81 31 L 28 82 L 28 87 L 56 114 L 64 114 L 63 106 L 37 78 L 42 73 L 51 82 L 92 42 Z"/>
    <path class="monster-icon__shape" d="M 81 61 L 78 62 L 82 67 L 71 78 L 68 73 L 54 86 L 69 100 L 69 94 L 89 75 L 94 78 L 67 107 L 67 114 L 75 114 L 102 87 L 102 82 Z"/>
    <path class="monster-icon__shape" d="M 63 14 L 63 21 L 43 41 L 53 51 L 52 45 L 60 37 L 64 41 L 77 28 Z"/>
  </g>
</svg>
