<svg xmlns="http://www.w3.org/2000/svg" viewBox="0 0 490 372" role="img" aria-labelledby="title" class="thewuwacalculator">
  <title id="title">.thewuwacalculator</title>
  <g fill="currentColor">
    <path class="thewuwacalculator__shape thewuwacalculator__shape--1" d="M 316 3 C 314.83 -0.17, 296 4.5, 287 6 C 278 7.5, 272.17 8.83, 262 12 C 251.83 15.17, 236.33 20.5, 226 25 C 215.67 29.5, 207.83 34.17, 200 39 C 192.17 43.83, 187 47.33, 179 54 C 171 60.67, 160.67 70.17, 152 79 C 143.33 87.83, 138.83 92.83, 127 107 C 115.17 121.17, 91.5 151.83, 81 164 C 70.5 176.17, 68.5 176.33, 64 180 C 59.5 183.67, 57.83 184.33, 54 186 C 50.17 187.67, 45.83 189, 41 190 C 36.17 191, 31.33 191.83, 25 192 C 18.67 192.17, 3.17 188.83, 3 191 C 2.83 193.17, 16.83 201.33, 24 205 C 31.17 208.67, 38.5 211.5, 46 213 C 53.5 214.5, 62 214.33, 69 214 C 76 213.67, 83.5 212, 88 211 C 92.5 210, 90.67 211.17, 96 208 C 101.33 204.83, 104.33 207, 120 192 C 135.67 177, 176.33 131.5, 190 118 C 203.67 104.5, 197.5 112, 202 111 C 206.5 110, 213.5 111.33, 217 112 C 220.5 112.67, 220.17 112.67, 223 115 C 225.83 117.33, 227.83 117.67, 234 126 C 240.17 134.33, 254.67 156.33, 260 165 C 265.33 173.67, 266.67 182.17, 266 178 C 265.33 173.83, 257.67 151.33, 256 140 C 254.33 128.67, 255.5 117.67, 256 110 C 256.5 102.33, 257.33 100.17, 259 94 C 260.67 87.83, 263 80.5, 266 73 C 269 65.5, 272.33 57, 277 49 C 281.67 41, 287.5 32.67, 294 25 C 300.5 17.33, 317.17 6.17, 316 3 Z"/>
    <path class="thewuwacalculator__shape thewuwacalculator__shape--2" d="M 484 125 C 483.17 122.83, 464.17 116.83, 455 115 C 445.83 113.17, 438 113, 429 114 C 420 115, 409 118.17, 401 121 C 393 123.83, 388.33 126.33, 381 131 C 373.67 135.67, 363.5 143.5, 357 149 C 350.5 154.5, 350.67 153.83, 342 164 C 333.33 174.17, 316.33 195.17, 305 210 C 293.67 224.83, 281.5 243.33, 274 253 C 266.5 262.67, 264.83 271.33, 260 268 C 255.17 264.67, 249.5 241.67, 245 233 C 240.5 224.33, 238.17 221.83, 233 216 C 227.83 210.17, 221.17 203.17, 214 198 C 206.83 192.83, 191.67 184.83, 190 185 C 188.33 185.17, 199.5 192, 204 199 C 208.5 206, 213.33 216.83, 217 227 C 220.67 237.17, 224.33 248.83, 226 260 C 227.67 271.17, 230.83 286.17, 227 294 C 223.17 301.83, 211.67 303.67, 203 307 C 194.33 310.33, 184.33 313.33, 175 314 C 165.67 314.67, 156.5 313.67, 147 311 C 137.5 308.33, 118 295.17, 118 298 C 118 300.83, 137.5 320, 147 328 C 156.5 336, 165.5 341.83, 175 346 C 184.5 350.17, 195.83 352.17, 204 353 C 212.17 353.83, 218 352.17, 224 351 C 230 349.83, 232.17 350, 240 346 C 247.83 342, 261.67 334.17, 271 327 C 280.33 319.83, 283.83 317.33, 296 303 C 308.17 288.67, 329.33 261, 344 241 C 358.67 221, 373 197.33, 384 183 C 395 168.67, 400.33 163.17, 410 155 C 419.67 146.83, 433.67 138.5, 442 134 C 450.33 129.5, 453 129.5, 460 128 C 467 126.5, 484.83 127.17, 484 125 Z"/>
    <path class="thewuwacalculator__shape thewuwacalculator__shape--3" d="M 442 170 C 439 171, 431.83 178.67, 425 186 C 418.17 193.33, 407.5 206, 401 214 C 394.5 222, 392.5 226, 386 234 C 379.5 242, 369.67 252.5, 362 262 C 354.33 271.5, 348.83 280, 340 291 C 331.17 302, 317.67 318.33, 309 328 C 300.33 337.67, 294 343.5, 288 349 C 282 354.5, 276.83 358.17, 273 361 C 269.17 363.83, 260.67 366, 265 366 C 269.33 366, 291.33 362.5, 299 361 C 306.67 359.5, 308.5 357.67, 311 357 C 313.5 356.33, 311.17 358, 314 357 C 316.83 356, 325.33 352, 328 351 C 330.67 350, 326.17 352.83, 330 351 C 333.83 349.17, 345.5 343.17, 351 340 C 356.5 336.83, 358.67 335.17, 363 332 C 367.33 328.83, 371.67 325.67, 377 321 C 382.33 316.33, 390 309.17, 395 304 C 400 298.83, 402.17 296.67, 407 290 C 411.83 283.33, 419.17 272.67, 424 264 C 428.83 255.33, 433.83 243.33, 436 238 C 438.17 232.67, 436.33 234.17, 437 232 C 437.67 229.83, 439.17 228.17, 440 225 C 440.83 221.83, 441.5 215.17, 442 213 C 442.5 210.83, 442.83 213, 443 212 C 443.17 211, 442.83 208, 443 207 C 443.17 206, 443.83 210.33, 444 206 C 444.17 201.67, 444.17 185.33, 444 181 C 443.83 176.67, 443.33 181.83, 443 180 C 442.67 178.17, 445 169, 442 170 Z"/>
  </g>
</svg>